<?xml version="1.0" encoding="UTF-8" standalone="no"?>
<!DOCTYPE svg PUBLIC "-//W3C//DTD SVG 1.1//EN" "http://www.w3.org/Graphics/SVG/1.1/DTD/svg11.dtd">
<svg width="100%" height="100%" viewBox="0 0 539 539" version="1.1" xmlns="http://www.w3.org/2000/svg" xmlns:xlink="http://www.w3.org/1999/xlink" xml:space="preserve" xmlns:serif="http://www.serif.com/" style="fill-rule:evenodd;clip-rule:evenodd;stroke-linejoin:round;stroke-miterlimit:2;">
    <g transform="matrix(1,0,0,1,0,-9.6595)">
        <g transform="matrix(1.00528,0,0,1.00528,-1.43613,9.78005)">
            <circle cx="269.116" cy="267.567" r="267.687"/>
        </g>
        <g transform="matrix(0.184647,0,0,0.184647,47.5331,57.1831)">
            <path d="M1200,146.42L2004.12,414.197C2013.54,417.333 2019.7,426.506 2019.03,436.408L1965.94,1221.74C1965.52,1227.97 1967.79,1234.09 1972.16,1238.54L2210.83,1481.23C2218.72,1489.25 2219.23,1501.94 2212.02,1510.57L1890.99,1894.77C1884.9,1902.05 1874.75,1904.58 1865.96,1901L1676.9,1823.9C1671.2,1821.58 1664.77,1821.77 1659.21,1824.43C1653.65,1827.09 1649.47,1831.98 1647.71,1837.88L1559.15,2134.05C1557.07,2141.04 1551.61,2146.53 1544.63,2148.68L1206.42,2252.62C1202.24,2253.9 1197.76,2253.9 1193.58,2252.62L855.365,2148.68C848.391,2146.53 842.935,2141.04 840.845,2134.05L752.291,1837.88C750.526,1831.98 746.345,1827.09 740.789,1824.43C735.232,1821.77 728.802,1821.58 723.097,1823.9L534.037,1901C525.253,1904.58 515.095,1902.05 509.012,1894.77L187.977,1510.57C180.766,1501.94 181.281,1489.25 189.166,1481.23L427.836,1238.54C432.214,1234.09 434.481,1227.97 434.06,1221.74L380.973,436.408C380.304,426.506 386.459,417.333 395.875,414.197L1200,146.42ZM1190.7,1600.75L1070.01,1777.08C1065.13,1784.21 1066.63,1793.9 1073.43,1799.22L1117.9,1833.97C1124.63,1839.23 1134.27,1838.43 1140.04,1832.14L1194.36,1772.88C1195.81,1771.31 1197.86,1770.4 1200,1770.4C1202.14,1770.4 1204.19,1771.31 1205.64,1772.88L1259.96,1832.14C1265.73,1838.43 1275.37,1839.23 1282.1,1833.97L1326.57,1799.22C1333.37,1793.9 1334.88,1784.21 1330,1777.08L1209.3,1600.75C1207.2,1597.68 1203.72,1595.85 1200,1595.85C1196.29,1595.85 1192.8,1597.68 1190.7,1600.75ZM1644.87,1158.93C1527.69,1158.93 1432.56,1254.07 1432.56,1371.25C1432.56,1488.43 1527.69,1583.56 1644.87,1583.56C1762.05,1583.56 1857.19,1488.43 1857.19,1371.25C1857.19,1254.07 1762.05,1158.93 1644.87,1158.93ZM755.129,1158.93C637.951,1158.93 542.816,1254.07 542.816,1371.25C542.816,1488.43 637.951,1583.56 755.129,1583.56C872.308,1583.56 967.443,1488.43 967.443,1371.25C967.443,1254.07 872.308,1158.93 755.129,1158.93Z" style="fill:rgb(255,233,0);"/>
        </g>
    </g>
</svg>
